<svg width="140" height="22" viewBox="0 0 140 22" fill="none" xmlns="http://www.w3.org/2000/svg">
<mask id="path-1-inside-1_91_25" fill="white">
<path d="M13.4805 17H10.1719L3.70508 5.75293V17H0.62207V1.16602H4.0918L10.3975 12.2197V1.16602H13.4805V17ZM23.8359 15.3457C23.8073 15.3815 23.7357 15.4889 23.6211 15.668C23.5065 15.847 23.3704 16.0046 23.2129 16.1406C22.7331 16.5703 22.2676 16.8639 21.8164 17.0215C21.3724 17.179 20.8496 17.2578 20.248 17.2578C18.515 17.2578 17.3477 16.6348 16.7461 15.3887C16.4095 14.7012 16.2412 13.6878 16.2412 12.3486V5.29102H19.3779V12.3486C19.3779 13.0146 19.4567 13.516 19.6143 13.8525C19.8936 14.4469 20.4414 14.7441 21.2578 14.7441C22.3034 14.7441 23.0195 14.3216 23.4062 13.4766C23.6068 13.0182 23.707 12.4131 23.707 11.6611V5.29102H26.8115V17H23.8359V15.3457ZM36.3506 8.51367C36.0928 7.94792 35.5879 7.66504 34.8359 7.66504C33.9622 7.66504 33.375 7.94792 33.0742 8.51367C32.9095 8.83594 32.8271 9.31576 32.8271 9.95312V17H29.7227V5.3125H32.6982V7.02051C33.0778 6.41178 33.4359 5.97852 33.7725 5.7207C34.3669 5.26237 35.1367 5.0332 36.082 5.0332C36.9772 5.0332 37.7005 5.23014 38.252 5.62402C38.696 5.98926 39.0326 6.45833 39.2617 7.03125C39.6628 6.34375 40.1605 5.83887 40.7549 5.5166C41.3851 5.19434 42.0869 5.0332 42.8604 5.0332C43.376 5.0332 43.8844 5.13346 44.3857 5.33398C44.887 5.53451 45.3418 5.88542 45.75 6.38672C46.0794 6.79492 46.3014 7.29622 46.416 7.89062C46.4876 8.28451 46.5234 8.861 46.5234 9.62012L46.502 17H43.3652V9.54492C43.3652 9.10091 43.2936 8.73568 43.1504 8.44922C42.8783 7.90495 42.377 7.63281 41.6465 7.63281C40.8014 7.63281 40.2178 7.98372 39.8955 8.68555C39.7308 9.05794 39.6484 9.50553 39.6484 10.0283V17H36.5654V10.0283C36.5654 9.33366 36.4938 8.82878 36.3506 8.51367ZM49.7891 6.55859C50.5983 5.52734 51.9876 5.01172 53.957 5.01172C55.2389 5.01172 56.3776 5.26595 57.373 5.77441C58.3685 6.28288 58.8662 7.24251 58.8662 8.65332V14.0244C58.8662 14.3968 58.8734 14.848 58.8877 15.3779C58.9092 15.779 58.9701 16.0511 59.0703 16.1943C59.1706 16.3376 59.321 16.4557 59.5215 16.5488V17H56.1914C56.0983 16.7637 56.0339 16.5417 55.998 16.334C55.9622 16.1263 55.9336 15.89 55.9121 15.625C55.4896 16.0833 55.0026 16.4736 54.4512 16.7959C53.7923 17.1755 53.0475 17.3652 52.2168 17.3652C51.1569 17.3652 50.2796 17.0645 49.585 16.4629C48.8975 15.8542 48.5537 14.9948 48.5537 13.8848C48.5537 12.4453 49.1087 11.4033 50.2188 10.7588C50.8275 10.4079 51.7227 10.1572 52.9043 10.0068L53.9463 9.87793C54.512 9.80632 54.9167 9.7168 55.1602 9.60938C55.597 9.42318 55.8154 9.13314 55.8154 8.73926C55.8154 8.25944 55.6471 7.93001 55.3105 7.75098C54.9811 7.56478 54.4941 7.47168 53.8496 7.47168C53.1263 7.47168 52.6143 7.65072 52.3135 8.00879C52.0986 8.27376 51.9554 8.63184 51.8838 9.08301H48.9297C48.9941 8.05892 49.2806 7.21745 49.7891 6.55859ZM52.0664 14.7871C52.3529 15.0234 52.7038 15.1416 53.1191 15.1416C53.778 15.1416 54.3831 14.9482 54.9346 14.5615C55.4932 14.1748 55.7832 13.4694 55.8047 12.4453V11.3066C55.6113 11.4284 55.4144 11.5286 55.2139 11.6074C55.0205 11.679 54.752 11.7471 54.4082 11.8115L53.7207 11.9404C53.0762 12.055 52.6143 12.1947 52.335 12.3594C51.8623 12.6387 51.626 13.0719 51.626 13.6592C51.626 14.182 51.7728 14.5579 52.0664 14.7871ZM73.7119 14.7119C74.4925 14.7119 75.1263 14.626 75.6133 14.4541C76.5371 14.1247 76.999 13.5124 76.999 12.6172C76.999 12.0944 76.7699 11.6898 76.3115 11.4033C75.8532 11.124 75.1335 10.877 74.1523 10.6621L72.4766 10.2861C70.8294 9.91374 69.6908 9.50911 69.0605 9.07227C67.9935 8.3418 67.46 7.19954 67.46 5.64551C67.46 4.22754 67.9756 3.04948 69.0068 2.11133C70.0381 1.17318 71.5527 0.704102 73.5508 0.704102C75.2194 0.704102 76.641 1.14811 77.8154 2.03613C78.9971 2.91699 79.6165 4.19889 79.6738 5.88184H76.4941C76.4368 4.92936 76.0215 4.2526 75.248 3.85156C74.7324 3.58659 74.0915 3.4541 73.3252 3.4541C72.473 3.4541 71.7926 3.62598 71.2842 3.96973C70.7757 4.31348 70.5215 4.79329 70.5215 5.40918C70.5215 5.97493 70.7721 6.39746 71.2734 6.67676C71.5957 6.86296 72.2832 7.08138 73.3359 7.33203L76.0645 7.9873C77.2604 8.27376 78.1628 8.6569 78.7715 9.13672C79.7168 9.88151 80.1895 10.9593 80.1895 12.3701C80.1895 13.8167 79.6344 15.0199 78.5244 15.9795C77.4215 16.932 75.8604 17.4082 73.8408 17.4082C71.7783 17.4082 70.1562 16.9391 68.9746 16.001C67.793 15.0557 67.2021 13.7594 67.2021 12.1123H70.3604C70.4606 12.8356 70.6576 13.3763 70.9512 13.7344C71.4883 14.3861 72.4085 14.7119 73.7119 14.7119ZM89.9004 15.3457C89.8717 15.3815 89.8001 15.4889 89.6855 15.668C89.571 15.847 89.4349 16.0046 89.2773 16.1406C88.7975 16.5703 88.332 16.8639 87.8809 17.0215C87.4368 17.179 86.9141 17.2578 86.3125 17.2578C84.5794 17.2578 83.4121 16.6348 82.8105 15.3887C82.474 14.7012 82.3057 13.6878 82.3057 12.3486V5.29102H85.4424V12.3486C85.4424 13.0146 85.5212 13.516 85.6787 13.8525C85.958 14.4469 86.5059 14.7441 87.3223 14.7441C88.3678 14.7441 89.084 14.3216 89.4707 13.4766C89.6712 13.0182 89.7715 12.4131 89.7715 11.6611V5.29102H92.876V17H89.9004V15.3457ZM105.648 6.54785C106.594 7.55762 107.066 9.04004 107.066 10.9951C107.066 13.0576 106.601 14.6296 105.67 15.7109C104.746 16.7923 103.554 17.333 102.093 17.333C101.162 17.333 100.388 17.1003 99.7725 16.6348C99.4359 16.377 99.1064 16.001 98.7842 15.5068V21.6084H95.7549V5.29102H98.6875V7.02051C99.0169 6.51204 99.3678 6.111 99.7402 5.81738C100.421 5.2946 101.23 5.0332 102.168 5.0332C103.536 5.0332 104.696 5.53809 105.648 6.54785ZM103.908 11.1455C103.908 10.2432 103.701 9.44466 103.285 8.75C102.877 8.05534 102.211 7.70801 101.287 7.70801C100.177 7.70801 99.4144 8.23438 98.999 9.28711C98.7842 9.8457 98.6768 10.5547 98.6768 11.4141C98.6768 12.7747 99.0384 13.7308 99.7617 14.2822C100.191 14.6045 100.7 14.7656 101.287 14.7656C102.139 14.7656 102.787 14.4362 103.231 13.7773C103.683 13.1185 103.908 12.2412 103.908 11.1455ZM119.098 6.54785C120.043 7.55762 120.516 9.04004 120.516 10.9951C120.516 13.0576 120.05 14.6296 119.119 15.7109C118.195 16.7923 117.003 17.333 115.542 17.333C114.611 17.333 113.838 17.1003 113.222 16.6348C112.885 16.377 112.556 16.001 112.233 15.5068V21.6084H109.204V5.29102H112.137V7.02051C112.466 6.51204 112.817 6.111 113.189 5.81738C113.87 5.2946 114.679 5.0332 115.617 5.0332C116.985 5.0332 118.145 5.53809 119.098 6.54785ZM117.357 11.1455C117.357 10.2432 117.15 9.44466 116.734 8.75C116.326 8.05534 115.66 7.70801 114.736 7.70801C113.626 7.70801 112.864 8.23438 112.448 9.28711C112.233 9.8457 112.126 10.5547 112.126 11.4141C112.126 12.7747 112.488 13.7308 113.211 14.2822C113.641 14.6045 114.149 14.7656 114.736 14.7656C115.589 14.7656 116.237 14.4362 116.681 13.7773C117.132 13.1185 117.357 12.2412 117.357 11.1455ZM122.804 1.16602H125.865V17H122.804V1.16602ZM133.621 13.9277L136.038 5.29102H139.293L135.275 16.8066C134.502 19.0267 133.89 20.4017 133.438 20.9316C132.987 21.4688 132.085 21.7373 130.731 21.7373C130.459 21.7373 130.241 21.7337 130.076 21.7266C129.911 21.7266 129.664 21.7158 129.335 21.6943V19.2451L129.722 19.2666C130.022 19.2809 130.309 19.2702 130.581 19.2344C130.853 19.1986 131.082 19.1162 131.269 18.9873C131.448 18.8656 131.612 18.6113 131.763 18.2246C131.92 17.8379 131.985 17.6016 131.956 17.5156L127.659 5.29102H131.064L133.621 13.9277Z"/>
</mask>
<path d="M13.4805 17V17.5H13.9805V17H13.4805ZM10.1719 17L9.73842 17.2492L9.88261 17.5H10.1719V17ZM3.70508 5.75293L4.13854 5.5037L3.20508 3.88023V5.75293H3.70508ZM3.70508 17V17.5H4.20508V17H3.70508ZM0.62207 17H0.12207V17.5H0.62207V17ZM0.62207 1.16602V0.666016H0.12207V1.16602H0.62207ZM4.0918 1.16602L4.5261 0.918264L4.3822 0.666016H4.0918V1.16602ZM10.3975 12.2197L9.96316 12.4675L10.8975 14.1053V12.2197H10.3975ZM10.3975 1.16602V0.666016H9.89746V1.16602H10.3975ZM13.4805 1.16602H13.9805V0.666016H13.4805V1.16602ZM13.4805 17V16.5H10.1719V17V17.5H13.4805V17ZM10.1719 17L10.6053 16.7508L4.13854 5.5037L3.70508 5.75293L3.27162 6.00216L9.73842 17.2492L10.1719 17ZM3.70508 5.75293H3.20508V17H3.70508H4.20508V5.75293H3.70508ZM3.70508 17V16.5H0.62207V17V17.5H3.70508V17ZM0.62207 17H1.12207V1.16602H0.62207H0.12207V17H0.62207ZM0.62207 1.16602V1.66602H4.0918V1.16602V0.666016H0.62207V1.16602ZM4.0918 1.16602L3.65749 1.41377L9.96316 12.4675L10.3975 12.2197L10.8318 11.972L4.5261 0.918264L4.0918 1.16602ZM10.3975 12.2197H10.8975V1.16602H10.3975H9.89746V12.2197H10.3975ZM10.3975 1.16602V1.66602H13.4805V1.16602V0.666016H10.3975V1.16602ZM13.4805 1.16602H12.9805V17H13.4805H13.9805V1.16602H13.4805ZM23.8359 15.3457H24.3359V13.9203L23.4455 15.0334L23.8359 15.3457ZM23.6211 15.668L23.2 15.3984L23.6211 15.668ZM23.2129 16.1406L22.886 15.7622L22.8793 15.7681L23.2129 16.1406ZM21.8164 17.0215L21.6516 16.5494L21.6492 16.5503L21.8164 17.0215ZM16.7461 15.3887L17.1964 15.1713L17.1952 15.1688L16.7461 15.3887ZM16.2412 5.29102V4.79102H15.7412V5.29102H16.2412ZM19.3779 5.29102H19.8779V4.79102H19.3779V5.29102ZM19.6143 13.8525L19.1614 14.0645L19.1617 14.0652L19.6143 13.8525ZM23.4062 13.4766L23.861 13.6847L23.8643 13.677L23.4062 13.4766ZM23.707 5.29102V4.79102H23.207V5.29102H23.707ZM26.8115 5.29102H27.3115V4.79102H26.8115V5.29102ZM26.8115 17V17.5H27.3115V17H26.8115ZM23.8359 17H23.3359V17.5H23.8359V17ZM23.8359 15.3457L23.4455 15.0334C23.3963 15.0949 23.3078 15.2299 23.2 15.3984L23.6211 15.668L24.0422 15.9375C24.0988 15.8492 24.1434 15.7805 24.1768 15.7305C24.214 15.6746 24.2276 15.6565 24.2264 15.6581L23.8359 15.3457ZM23.6211 15.668L23.2 15.3984C23.1108 15.5377 23.0063 15.6584 22.8861 15.7622L23.2129 16.1406L23.5397 16.519C23.7346 16.3508 23.9022 16.1563 24.0422 15.9375L23.6211 15.668ZM23.2129 16.1406L22.8793 15.7681C22.4325 16.1683 22.0229 16.4198 21.6516 16.5494L21.8164 17.0215L21.9812 17.4935C22.5123 17.3081 23.0336 16.9724 23.5465 16.5131L23.2129 16.1406ZM21.8164 17.0215L21.6492 16.5503C21.2714 16.6843 20.8077 16.7578 20.248 16.7578V17.2578V17.7578C20.8916 17.7578 21.4734 17.6737 21.9836 17.4927L21.8164 17.0215ZM20.248 17.2578V16.7578C19.439 16.7578 18.8004 16.6122 18.3082 16.3494C17.8225 16.0902 17.4533 15.7035 17.1964 15.1713L16.7461 15.3887L16.2958 15.606C16.6404 16.3199 17.1557 16.8678 17.8373 17.2316C18.5124 17.5919 19.324 17.7578 20.248 17.7578V17.2578ZM16.7461 15.3887L17.1952 15.1688C16.9085 14.5832 16.7412 13.6606 16.7412 12.3486H16.2412H15.7412C15.7412 13.715 15.9105 14.8191 16.297 15.6085L16.7461 15.3887ZM16.2412 12.3486H16.7412V5.29102H16.2412H15.7412V12.3486H16.2412ZM16.2412 5.29102V5.79102H19.3779V5.29102V4.79102H16.2412V5.29102ZM19.3779 5.29102H18.8779V12.3486H19.3779H19.8779V5.29102H19.3779ZM19.3779 12.3486H18.8779C18.8779 13.0388 18.9572 13.6281 19.1614 14.0645L19.6143 13.8525L20.0671 13.6406C19.9563 13.4038 19.8779 12.9905 19.8779 12.3486H19.3779ZM19.6143 13.8525L19.1617 14.0652C19.3441 14.4534 19.6233 14.7584 19.9962 14.9607C20.3625 15.1595 20.7913 15.2441 21.2578 15.2441V14.7441V14.2441C20.9079 14.2441 20.6546 14.1802 20.473 14.0817C20.2981 13.9868 20.1637 13.8461 20.0668 13.6399L19.6143 13.8525ZM21.2578 14.7441V15.2441C21.8472 15.2441 22.3807 15.1249 22.8332 14.8579C23.2895 14.5887 23.6302 14.1887 23.8609 13.6846L23.4062 13.4766L22.9516 13.2685C22.7956 13.6095 22.5849 13.8433 22.325 13.9966C22.0614 14.1522 21.714 14.2441 21.2578 14.2441V14.7441ZM23.4062 13.4766L23.8643 13.677C24.1028 13.1319 24.207 12.4506 24.207 11.6611H23.707H23.207C23.207 12.3756 23.1107 12.9046 22.9482 13.2762L23.4062 13.4766ZM23.707 11.6611H24.207V5.29102H23.707H23.207V11.6611H23.707ZM23.707 5.29102V5.79102H26.8115V5.29102V4.79102H23.707V5.29102ZM26.8115 5.29102H26.3115V17H26.8115H27.3115V5.29102H26.8115ZM26.8115 17V16.5H23.8359V17V17.5H26.8115V17ZM23.8359 17H24.3359V15.3457H23.8359H23.3359V17H23.8359ZM36.3506 8.51367L36.8058 8.30677L36.8056 8.30634L36.3506 8.51367ZM33.0742 8.51367L32.6327 8.27893L32.629 8.28612L33.0742 8.51367ZM32.8271 17V17.5H33.3271V17H32.8271ZM29.7227 17H29.2227V17.5H29.7227V17ZM29.7227 5.3125V4.8125H29.2227V5.3125H29.7227ZM32.6982 5.3125H33.1982V4.8125H32.6982V5.3125ZM32.6982 7.02051H32.1982V8.76739L33.1225 7.28506L32.6982 7.02051ZM33.7725 5.7207L34.0765 6.11764L34.0778 6.11666L33.7725 5.7207ZM38.252 5.62402L38.5696 5.23788L38.5564 5.22706L38.5426 5.21716L38.252 5.62402ZM39.2617 7.03125L38.7975 7.21695L39.1777 8.16756L39.6936 7.28319L39.2617 7.03125ZM40.7549 5.5166L40.5272 5.0713L40.5166 5.07705L40.7549 5.5166ZM44.3857 5.33398L44.2 5.79822L44.2 5.79822L44.3857 5.33398ZM45.75 6.38672L46.1391 6.07271L46.1377 6.07101L45.75 6.38672ZM46.416 7.89062L46.908 7.80118L46.907 7.79598L46.416 7.89062ZM46.5234 9.62012L47.0234 9.62157V9.62012H46.5234ZM46.502 17V17.5H47.0005L47.002 17.0015L46.502 17ZM43.3652 17H42.8652V17.5H43.3652V17ZM39.8955 8.68555L39.4411 8.47688L39.4382 8.48329L39.8955 8.68555ZM39.6484 17V17.5H40.1484V17H39.6484ZM36.5654 17H36.0654V17.5H36.5654V17ZM36.3506 8.51367L36.8056 8.30634C36.6361 7.93434 36.3752 7.63834 36.023 7.441C35.6768 7.24703 35.2726 7.16504 34.8359 7.16504V7.66504V8.16504C35.1513 8.16504 35.3755 8.22448 35.5342 8.3134C35.6868 8.39893 35.8073 8.52725 35.8956 8.72101L36.3506 8.51367ZM34.8359 7.66504V7.16504C33.8544 7.16504 33.0513 7.49159 32.6327 8.27896L33.0742 8.51367L33.5157 8.74839C33.6987 8.40424 34.0701 8.16504 34.8359 8.16504V7.66504ZM33.0742 8.51367L32.629 8.28612C32.4105 8.71369 32.3271 9.28829 32.3271 9.95312H32.8271H33.3271C33.3271 9.34322 33.4085 8.95818 33.5194 8.74123L33.0742 8.51367ZM32.8271 9.95312H32.3271V17H32.8271H33.3271V9.95312H32.8271ZM32.8271 17V16.5H29.7227V17V17.5H32.8271V17ZM29.7227 17H30.2227V5.3125H29.7227H29.2227V17H29.7227ZM29.7227 5.3125V5.8125H32.6982V5.3125V4.8125H29.7227V5.3125ZM32.6982 5.3125H32.1982V7.02051H32.6982H33.1982V5.3125H32.6982ZM32.6982 7.02051L33.1225 7.28506C33.4892 6.69705 33.8095 6.32215 34.0765 6.11764L33.7725 5.7207L33.4684 5.32376C33.0622 5.63488 32.6664 6.12652 32.274 6.75596L32.6982 7.02051ZM33.7725 5.7207L34.0778 6.11666C34.5641 5.74163 35.2181 5.5332 36.082 5.5332V5.0332V4.5332C35.0554 4.5332 34.1696 4.78311 33.4671 5.32475L33.7725 5.7207ZM36.082 5.0332V5.5332C36.9061 5.5332 37.5182 5.71435 37.9613 6.03089L38.252 5.62402L38.5426 5.21716C37.8829 4.74593 37.0483 4.5332 36.082 4.5332V5.0332ZM38.252 5.62402L37.9343 6.01017C38.3087 6.31809 38.5972 6.71622 38.7975 7.21695L39.2617 7.03125L39.726 6.84555C39.4679 6.20045 39.0833 5.66043 38.5696 5.23788L38.252 5.62402ZM39.2617 7.03125L39.6936 7.28319C40.0568 6.6606 40.4926 6.22758 40.9932 5.95616L40.7549 5.5166L40.5166 5.07705C39.8284 5.45016 39.2687 6.0269 38.8298 6.77931L39.2617 7.03125ZM40.7549 5.5166L40.9825 5.96177C41.5359 5.6788 42.1586 5.5332 42.8604 5.5332V5.0332V4.5332C42.0152 4.5332 41.2343 4.70987 40.5272 5.07143L40.7549 5.5166ZM42.8604 5.0332V5.5332C43.3094 5.5332 43.755 5.6202 44.2 5.79822L44.3857 5.33398L44.5714 4.86975C44.0139 4.64673 43.4426 4.5332 42.8604 4.5332V5.0332ZM44.3857 5.33398L44.2 5.79822C44.6083 5.96152 44.9971 6.25402 45.3623 6.70243L45.75 6.38672L46.1377 6.07101C45.6865 5.51682 45.1658 5.10749 44.5714 4.86975L44.3857 5.33398ZM45.75 6.38672L45.3609 6.70073C45.6315 7.03606 45.8236 7.45877 45.9251 7.98527L46.416 7.89062L46.907 7.79598C46.7793 7.13368 46.5273 6.55378 46.1391 6.07271L45.75 6.38672ZM46.416 7.89062L45.9241 7.98007C45.9875 8.32891 46.0234 8.86944 46.0234 9.62012H46.5234H47.0234C47.0234 8.85256 46.9878 8.2401 46.908 7.80118L46.416 7.89062ZM46.5234 9.62012L46.0234 9.61866L46.002 16.9985L46.502 17L47.002 17.0015L47.0234 9.62157L46.5234 9.62012ZM46.502 17V16.5H43.3652V17V17.5H46.502V17ZM43.3652 17H43.8652V9.54492H43.3652H42.8652V17H43.3652ZM43.3652 9.54492H43.8652C43.8652 9.05157 43.7863 8.603 43.5976 8.22561L43.1504 8.44922L42.7032 8.67283C42.8009 8.86835 42.8652 9.15026 42.8652 9.54492H43.3652ZM43.1504 8.44922L43.5976 8.22561C43.419 7.86832 43.1557 7.58576 42.8089 7.39749C42.4673 7.21205 42.0722 7.13281 41.6465 7.13281V7.63281V8.13281C41.9512 8.13281 42.1721 8.18964 42.3318 8.27634C42.4863 8.3602 42.6097 8.48584 42.7032 8.67283L43.1504 8.44922ZM41.6465 7.63281V7.13281C41.1549 7.13281 40.7037 7.2352 40.3173 7.46748C39.9281 7.70152 39.6384 8.04725 39.4411 8.4769L39.8955 8.68555L40.3499 8.89419C40.4749 8.62202 40.6382 8.44139 40.8326 8.32451C41.0299 8.20588 41.293 8.13281 41.6465 8.13281V7.63281ZM39.8955 8.68555L39.4382 8.48329C39.2386 8.93474 39.1484 9.45487 39.1484 10.0283H39.6484H40.1484C40.1484 9.55619 40.223 9.18115 40.3528 8.8878L39.8955 8.68555ZM39.6484 10.0283H39.1484V17H39.6484H40.1484V10.0283H39.6484ZM39.6484 17V16.5H36.5654V17V17.5H39.6484V17ZM36.5654 17H37.0654V10.0283H36.5654H36.0654V17H36.5654ZM36.5654 10.0283H37.0654C37.0654 9.31988 36.9955 8.72427 36.8058 8.30677L36.3506 8.51367L35.8954 8.72057C35.9921 8.93329 36.0654 9.34743 36.0654 10.0283H36.5654ZM49.7891 6.55859L49.3957 6.24991L49.3932 6.25311L49.7891 6.55859ZM57.373 5.77441L57.6005 5.32914L57.373 5.77441ZM58.8877 15.3779L58.3877 15.3914L58.3884 15.4047L58.8877 15.3779ZM59.5215 16.5488H60.0215V16.2297L59.732 16.0953L59.5215 16.5488ZM59.5215 17V17.5H60.0215V17H59.5215ZM56.1914 17L55.7262 17.1833L55.851 17.5H56.1914V17ZM55.9121 15.625L56.4105 15.5846L56.3182 14.4468L55.5445 15.2861L55.9121 15.625ZM54.4512 16.7959L54.7008 17.2292L54.7035 17.2276L54.4512 16.7959ZM49.585 16.4629L49.2535 16.8373L49.2576 16.8409L49.585 16.4629ZM50.2188 10.7588L49.969 10.3256L49.9677 10.3264L50.2188 10.7588ZM52.9043 10.0068L52.8429 9.51062L52.8412 9.51084L52.9043 10.0068ZM53.9463 9.87793L54.0077 10.3741L54.0091 10.374L53.9463 9.87793ZM55.1602 9.60938L54.9641 9.14938L54.9583 9.15192L55.1602 9.60938ZM55.3105 7.75098L55.0644 8.1864L55.0757 8.19241L55.3105 7.75098ZM52.3135 8.00879L51.9306 7.68714L51.9251 7.69389L52.3135 8.00879ZM51.8838 9.08301V9.58301H52.3107L52.3776 9.16139L51.8838 9.08301ZM48.9297 9.08301L48.4307 9.0516L48.3972 9.58301H48.9297V9.08301ZM52.0664 14.7871L52.3847 14.4013L52.374 14.393L52.0664 14.7871ZM54.9346 14.5615L54.65 14.1504L54.6475 14.1522L54.9346 14.5615ZM55.8047 12.4453L56.3047 12.4558V12.4453H55.8047ZM55.8047 11.3066H56.3047V10.401L55.5383 10.8835L55.8047 11.3066ZM55.2139 11.6074L55.3876 12.0764L55.3967 12.0728L55.2139 11.6074ZM53.7207 11.9404L53.8082 12.4327L53.8128 12.4319L53.7207 11.9404ZM52.335 12.3594L52.081 11.9287L52.0806 11.9289L52.335 12.3594ZM49.7891 6.55859L50.1824 6.86726C50.8568 6.00781 52.0619 5.51172 53.957 5.51172V5.01172V4.51172C51.9134 4.51172 50.3398 5.04688 49.3957 6.24992L49.7891 6.55859ZM53.957 5.01172V5.51172C55.1715 5.51172 56.2303 5.75215 57.1456 6.21969L57.373 5.77441L57.6005 5.32914C56.5249 4.77975 55.3063 4.51172 53.957 4.51172V5.01172ZM57.373 5.77441L57.1456 6.21969C57.9274 6.61901 58.3662 7.37185 58.3662 8.65332H58.8662H59.3662C59.3662 7.11318 58.8096 5.94675 57.6005 5.32914L57.373 5.77441ZM58.8662 8.65332H58.3662V14.0244H58.8662H59.3662V8.65332H58.8662ZM58.8662 14.0244H58.3662C58.3662 14.4028 58.3735 14.8587 58.3879 15.3914L58.8877 15.3779L59.3875 15.3644C59.3733 14.8373 59.3662 14.3909 59.3662 14.0244H58.8662ZM58.8877 15.3779L58.3884 15.4047C58.4001 15.622 58.423 15.8198 58.4615 15.992C58.4987 16.1583 58.5575 16.3336 58.6607 16.4811L59.0703 16.1943L59.4799 15.9076C59.4829 15.9118 59.4611 15.8795 59.4374 15.7737C59.415 15.6736 59.3968 15.5349 59.387 15.3512L58.8877 15.3779ZM59.0703 16.1943L58.6607 16.4811C58.8232 16.7132 59.0513 16.8818 59.3109 17.0023L59.5215 16.5488L59.732 16.0953C59.5906 16.0297 59.518 15.962 59.4799 15.9076L59.0703 16.1943ZM59.5215 16.5488H59.0215V17H59.5215H60.0215V16.5488H59.5215ZM59.5215 17V16.5H56.1914V17V17.5H59.5215V17ZM56.1914 17L56.6566 16.8167C56.5736 16.6059 56.5198 16.4171 56.4908 16.249L55.998 16.334L55.5053 16.4189C55.548 16.6663 55.6231 16.9214 55.7262 17.1833L56.1914 17ZM55.998 16.334L56.4908 16.249C56.4581 16.0593 56.431 15.8383 56.4105 15.5846L55.9121 15.625L55.4137 15.6654C55.4361 15.9417 55.4664 16.1933 55.5053 16.4189L55.998 16.334ZM55.9121 15.625L55.5445 15.2861C55.1564 15.7071 54.7085 16.0664 54.1989 16.3642L54.4512 16.7959L54.7035 17.2276C55.2967 16.8809 55.8228 16.4596 56.2797 15.9639L55.9121 15.625ZM54.4512 16.7959L54.2016 16.3626C53.6256 16.6945 52.9683 16.8652 52.2168 16.8652V17.3652V17.8652C53.1268 17.8652 53.9591 17.6564 54.7008 17.2291L54.4512 16.7959ZM52.2168 17.3652V16.8652C51.2576 16.8652 50.5023 16.5958 49.9123 16.0849L49.585 16.4629L49.2576 16.8409C50.057 17.5331 51.0562 17.8652 52.2168 17.8652V17.3652ZM49.585 16.4629L49.9164 16.0885C49.3583 15.5944 49.0537 14.8842 49.0537 13.8848H48.5537H48.0537C48.0537 15.1054 48.4366 16.114 49.2535 16.8372L49.585 16.4629ZM48.5537 13.8848H49.0537C49.0537 12.5974 49.5352 11.7339 50.4698 11.1912L50.2188 10.7588L49.9677 10.3264C48.6823 11.0728 48.0537 12.2932 48.0537 13.8848H48.5537ZM50.2188 10.7588L50.4685 11.192C50.9932 10.8895 51.8121 10.6499 52.9674 10.5028L52.9043 10.0068L52.8412 9.51084C51.6332 9.66458 50.6617 9.9263 49.969 10.3256L50.2188 10.7588ZM52.9043 10.0068L52.9657 10.5031L54.0077 10.3741L53.9463 9.87793L53.8849 9.38171L52.8429 9.51062L52.9043 10.0068ZM53.9463 9.87793L54.0091 10.374C54.581 10.3016 55.0475 10.2056 55.362 10.0668L55.1602 9.60938L54.9583 9.15192C54.7858 9.22804 54.4431 9.31105 53.8835 9.38189L53.9463 9.87793ZM55.1602 9.60938L55.3562 10.0693C55.6311 9.95219 55.8753 9.78629 56.051 9.55299C56.2312 9.31379 56.3154 9.03496 56.3154 8.73926H55.8154H55.3154C55.3154 8.83743 55.2905 8.90056 55.2522 8.95141C55.2095 9.00814 55.1261 9.08036 54.9641 9.14941L55.1602 9.60938ZM55.8154 8.73926H56.3154C56.3154 8.131 56.0896 7.59901 55.5454 7.30954L55.3105 7.75098L55.0757 8.19241C55.2047 8.26101 55.3154 8.38788 55.3154 8.73926H55.8154ZM55.3105 7.75098L55.5566 7.3157C55.1164 7.06692 54.5272 6.97168 53.8496 6.97168V7.47168V7.97168C54.4611 7.97168 54.8458 8.06263 55.0645 8.18626L55.3105 7.75098ZM53.8496 7.47168V6.97168C53.0596 6.97168 52.3685 7.16597 51.9306 7.68719L52.3135 8.00879L52.6963 8.33039C52.8601 8.13547 53.193 7.97168 53.8496 7.97168V7.47168ZM52.3135 8.00879L51.9251 7.69389C51.6393 8.04639 51.4708 8.49512 51.39 9.00462L51.8838 9.08301L52.3776 9.16139C52.44 8.76855 52.558 8.50114 52.7019 8.32369L52.3135 8.00879ZM51.8838 9.08301V8.58301H48.9297V9.08301V9.58301H51.8838V9.08301ZM48.9297 9.08301L49.4287 9.11441C49.4884 8.16655 49.7503 7.42721 50.1849 6.86407L49.7891 6.55859L49.3932 6.25311C48.8109 7.00769 48.4999 7.95129 48.4307 9.0516L48.9297 9.08301ZM52.0664 14.7871L51.7482 15.1728C52.1349 15.4918 52.6023 15.6416 53.1191 15.6416V15.1416V14.6416C52.8053 14.6416 52.5708 14.5551 52.3846 14.4014L52.0664 14.7871ZM53.1191 15.1416V15.6416C53.8831 15.6416 54.5881 15.4152 55.2217 14.9709L54.9346 14.5615L54.6475 14.1522C54.1782 14.4813 53.6728 14.6416 53.1191 14.6416V15.1416ZM54.9346 14.5615L55.2192 14.9726C55.9665 14.4552 56.2815 13.5555 56.3046 12.4558L55.8047 12.4453L55.3048 12.4348C55.2849 13.3833 55.0198 13.8944 54.65 14.1504L54.9346 14.5615ZM55.8047 12.4453H56.3047V11.3066H55.8047H55.3047V12.4453H55.8047ZM55.8047 11.3066L55.5383 10.8835C55.3698 10.9896 55.2007 11.0754 55.031 11.142L55.2139 11.6074L55.3967 12.0728C55.628 11.9819 55.8528 11.8672 56.0711 11.7298L55.8047 11.3066ZM55.2139 11.6074L55.0402 11.1385C54.8853 11.1959 54.6483 11.2578 54.3161 11.3201L54.4082 11.8115L54.5003 12.303C54.8556 12.2364 55.1557 12.1622 55.3875 12.0763L55.2139 11.6074ZM54.4082 11.8115L54.3161 11.3201L53.6286 11.449L53.7207 11.9404L53.8128 12.4319L54.5003 12.303L54.4082 11.8115ZM53.7207 11.9404L53.6332 11.4481C52.9773 11.5648 52.4411 11.7163 52.081 11.9287L52.335 12.3594L52.589 12.7901C52.7874 12.673 53.175 12.5453 53.8082 12.4327L53.7207 11.9404ZM52.335 12.3594L52.0806 11.9289C51.4432 12.3055 51.126 12.9101 51.126 13.6592H51.626H52.126C52.126 13.2338 52.2814 12.9718 52.5893 12.7898L52.335 12.3594ZM51.626 13.6592H51.126C51.126 14.2703 51.3 14.8232 51.7588 15.1813L52.0664 14.7871L52.374 14.393C52.2456 14.2927 52.126 14.0936 52.126 13.6592H51.626ZM75.6133 14.4541L75.7797 14.9256L75.7812 14.9251L75.6133 14.4541ZM76.3115 11.4033L76.5765 10.9793L76.5717 10.9763L76.3115 11.4033ZM74.1523 10.6621L74.0429 11.15L74.0454 11.1505L74.1523 10.6621ZM72.4766 10.2861L72.3663 10.7738L72.3671 10.774L72.4766 10.2861ZM69.0605 9.07227L69.3454 8.66133L69.343 8.65968L69.0605 9.07227ZM77.8154 2.03613L77.5139 2.43497L77.5166 2.43701L77.8154 2.03613ZM79.6738 5.88184V6.38184H80.1911L80.1735 5.86482L79.6738 5.88184ZM76.4941 5.88184L75.995 5.91186L76.0233 6.38184H76.4941V5.88184ZM75.248 3.85156L75.4782 3.40768L75.4766 3.40685L75.248 3.85156ZM71.2842 3.96973L71.0041 3.55551L71.2842 3.96973ZM71.2734 6.67676L71.5236 6.24377L71.5168 6.23997L71.2734 6.67676ZM73.3359 7.33203L73.4527 6.84585L73.4517 6.84563L73.3359 7.33203ZM76.0645 7.9873L75.9477 8.47348L75.948 8.47355L76.0645 7.9873ZM78.7715 9.13672L78.462 9.5294L78.462 9.52946L78.7715 9.13672ZM78.5244 15.9795L78.8512 16.3579L78.8514 16.3577L78.5244 15.9795ZM68.9746 16.001L68.6623 16.3914L68.6637 16.3926L68.9746 16.001ZM67.2021 12.1123V11.6123H66.7021V12.1123H67.2021ZM70.3604 12.1123L70.8556 12.0437L70.7958 11.6123H70.3604V12.1123ZM70.9512 13.7344L70.5645 14.0514L70.5653 14.0524L70.9512 13.7344ZM73.7119 14.7119V15.2119C74.5232 15.2119 75.2193 15.1234 75.7797 14.9256L75.6133 14.4541L75.4469 13.9826C75.0333 14.1286 74.4618 14.2119 73.7119 14.2119V14.7119ZM75.6133 14.4541L75.7812 14.9251C76.3097 14.7366 76.7476 14.4522 77.0517 14.0489C77.3587 13.6421 77.499 13.1546 77.499 12.6172H76.999H76.499C76.499 12.975 76.4084 13.2412 76.2534 13.4467C76.0957 13.6558 75.8407 13.8422 75.4453 13.9831L75.6133 14.4541ZM76.999 12.6172H77.499C77.499 11.915 77.175 11.3534 76.5765 10.9793L76.3115 11.4033L76.0465 11.8273C76.3647 12.0262 76.499 12.2738 76.499 12.6172H76.999ZM76.3115 11.4033L76.5717 10.9763C76.0412 10.6531 75.256 10.3919 74.2593 10.1737L74.1523 10.6621L74.0454 11.1505C75.011 11.362 75.6652 11.595 76.0513 11.8303L76.3115 11.4033ZM74.1523 10.6621L74.2618 10.1742L72.586 9.79826L72.4766 10.2861L72.3671 10.774L74.0429 11.15L74.1523 10.6621ZM72.4766 10.2861L72.5868 9.79844C70.945 9.42726 69.8899 9.03876 69.3454 8.66134L69.0605 9.07227L68.7757 9.48319C69.4916 9.97946 70.7138 10.4002 72.3663 10.7738L72.4766 10.2861ZM69.0605 9.07227L69.343 8.65968C68.4407 8.04202 67.96 7.07258 67.96 5.64551H67.46H66.96C66.96 7.32651 67.5463 8.64157 68.7781 9.48485L69.0605 9.07227ZM67.46 5.64551H67.96C67.96 4.36561 68.4182 3.32275 69.3433 2.48118L69.0068 2.11133L68.6704 1.74147C67.5329 2.77621 66.96 4.08947 66.96 5.64551H67.46ZM69.0068 2.11133L69.3433 2.48118C70.2494 1.65688 71.6237 1.2041 73.5508 1.2041V0.704102V0.204102C71.4818 0.204102 69.8268 0.689475 68.6704 1.74147L69.0068 2.11133ZM73.5508 0.704102V1.2041C75.1257 1.2041 76.4376 1.6212 77.5139 2.43496L77.8154 2.03613L78.117 1.6373C76.8443 0.675025 75.3131 0.204102 73.5508 0.204102V0.704102ZM77.8154 2.03613L77.5166 2.43701C78.5581 3.21341 79.1212 4.34331 79.1741 5.89885L79.6738 5.88184L80.1735 5.86482C80.1119 4.05447 79.436 2.62057 78.1143 1.63526L77.8154 2.03613ZM79.6738 5.88184V5.38184H76.4941V5.88184V6.38184H79.6738V5.88184ZM76.4941 5.88184L76.9932 5.85182C76.9266 4.74385 76.425 3.89863 75.4782 3.40769L75.248 3.85156L75.0179 4.29544C75.6179 4.60658 75.9471 5.11487 75.995 5.91186L76.4941 5.88184ZM75.248 3.85156L75.4766 3.40685C74.8712 3.09576 74.1464 2.9541 73.3252 2.9541V3.4541V3.9541C74.0366 3.9541 74.5936 4.07741 75.0195 4.29628L75.248 3.85156ZM73.3252 3.4541V2.9541C72.4107 2.9541 71.6217 3.138 71.0041 3.55551L71.2842 3.96973L71.5642 4.38395C71.9636 4.11396 72.5353 3.9541 73.3252 3.9541V3.4541ZM71.2842 3.96973L71.0041 3.55551C70.3576 3.99263 70.0215 4.62796 70.0215 5.40918H70.5215H71.0215C71.0215 4.95863 71.1939 4.63432 71.5642 4.38395L71.2842 3.96973ZM70.5215 5.40918H70.0215C70.0215 5.768 70.1017 6.10593 70.2794 6.40549C70.4569 6.70468 70.7154 6.93819 71.0301 7.11354L71.2734 6.67676L71.5168 6.23997C71.3302 6.13603 71.2127 6.01862 71.1395 5.89529C71.0666 5.77232 71.0215 5.61611 71.0215 5.40918H70.5215ZM71.2734 6.67676L71.0233 7.10969C71.4189 7.33826 72.1783 7.57037 73.2201 7.81843L73.3359 7.33203L73.4517 6.84563C72.3881 6.59239 71.7725 6.38765 71.5236 6.24383L71.2734 6.67676ZM73.3359 7.33203L73.2192 7.81821L75.9477 8.47348L76.0645 7.9873L76.1812 7.50113L73.4527 6.84585L73.3359 7.33203ZM76.0645 7.9873L75.948 8.47355C77.1104 8.75196 77.9337 9.11301 78.462 9.5294L78.7715 9.13672L79.081 8.74404C78.3918 8.20079 77.4105 7.79556 76.1809 7.50106L76.0645 7.9873ZM78.7715 9.13672L78.462 9.52946C79.2655 10.1625 79.6895 11.0829 79.6895 12.3701H80.1895H80.6895C80.6895 10.8357 80.1681 9.60051 79.0809 8.74397L78.7715 9.13672ZM80.1895 12.3701H79.6895C79.6895 13.6691 79.1994 14.735 78.1974 15.6012L78.5244 15.9795L78.8514 16.3577C80.0695 15.3047 80.6895 13.9643 80.6895 12.3701H80.1895ZM78.5244 15.9795L78.1976 15.6011C77.2153 16.4495 75.7865 16.9082 73.8408 16.9082V17.4082V17.9082C75.9342 17.9082 77.6278 17.4145 78.8512 16.3579L78.5244 15.9795ZM73.8408 17.4082V16.9082C71.8502 16.9082 70.3512 16.4555 69.2855 15.6094L68.9746 16.001L68.6637 16.3926C69.9613 17.4228 71.7065 17.9082 73.8408 17.9082V17.4082ZM68.9746 16.001L69.287 15.6105C68.2354 14.7693 67.7021 13.6229 67.7021 12.1123H67.2021H66.7021C66.7021 13.896 67.3505 15.342 68.6623 16.3914L68.9746 16.001ZM67.2021 12.1123V12.6123H70.3604V12.1123V11.6123H67.2021V12.1123ZM70.3604 12.1123L69.8651 12.181C69.9713 12.9475 70.188 13.5922 70.5645 14.0514L70.9512 13.7344L71.3378 13.4173C71.1271 13.1604 70.9499 12.7237 70.8556 12.0437L70.3604 12.1123ZM70.9512 13.7344L70.5653 14.0524C71.2394 14.8703 72.341 15.2119 73.7119 15.2119V14.7119V14.2119C72.4761 14.2119 71.7371 13.9019 71.337 13.4164L70.9512 13.7344ZM89.9004 15.3457H90.4004V13.9203L89.51 15.0334L89.9004 15.3457ZM89.6855 15.668L89.2644 15.3984L89.6855 15.668ZM89.2773 16.1406L88.9505 15.7622L88.9438 15.7681L89.2773 16.1406ZM87.8809 17.0215L87.716 16.5494L87.7137 16.5503L87.8809 17.0215ZM82.8105 15.3887L83.2608 15.1713L83.2596 15.1688L82.8105 15.3887ZM82.3057 5.29102V4.79102H81.8057V5.29102H82.3057ZM85.4424 5.29102H85.9424V4.79102H85.4424V5.29102ZM85.6787 13.8525L85.2259 14.0645L85.2262 14.0652L85.6787 13.8525ZM89.4707 13.4766L89.9254 13.6847L89.9288 13.677L89.4707 13.4766ZM89.7715 5.29102V4.79102H89.2715V5.29102H89.7715ZM92.876 5.29102H93.376V4.79102H92.876V5.29102ZM92.876 17V17.5H93.376V17H92.876ZM89.9004 17H89.4004V17.5H89.9004V17ZM89.9004 15.3457L89.51 15.0334C89.4607 15.0949 89.3723 15.2299 89.2644 15.3984L89.6855 15.668L90.1067 15.9375C90.1632 15.8492 90.2079 15.7805 90.2412 15.7305C90.2785 15.6746 90.2921 15.6565 90.2908 15.6581L89.9004 15.3457ZM89.6855 15.668L89.2644 15.3984C89.1753 15.5377 89.0708 15.6584 88.9505 15.7622L89.2773 16.1406L89.6042 16.519C89.799 16.3508 89.9666 16.1563 90.1067 15.9375L89.6855 15.668ZM89.2773 16.1406L88.9438 15.7681C88.497 16.1683 88.0874 16.4198 87.716 16.5494L87.8809 17.0215L88.0457 17.4935C88.5767 17.3081 89.0981 16.9724 89.6109 16.5131L89.2773 16.1406ZM87.8809 17.0215L87.7137 16.5503C87.3359 16.6843 86.8721 16.7578 86.3125 16.7578V17.2578V17.7578C86.956 17.7578 87.5378 17.6737 88.0481 17.4927L87.8809 17.0215ZM86.3125 17.2578V16.7578C85.5035 16.7578 84.8649 16.6122 84.3726 16.3494C83.887 16.0902 83.5178 15.7035 83.2608 15.1713L82.8105 15.3887L82.3603 15.606C82.7049 16.3199 83.2201 16.8678 83.9018 17.2316C84.5768 17.5919 85.3884 17.7578 86.3125 17.7578V17.2578ZM82.8105 15.3887L83.2596 15.1688C82.9729 14.5832 82.8057 13.6606 82.8057 12.3486H82.3057H81.8057C81.8057 13.715 81.975 14.8191 82.3615 15.6085L82.8105 15.3887ZM82.3057 12.3486H82.8057V5.29102H82.3057H81.8057V12.3486H82.3057ZM82.3057 5.29102V5.79102H85.4424V5.29102V4.79102H82.3057V5.29102ZM85.4424 5.29102H84.9424V12.3486H85.4424H85.9424V5.29102H85.4424ZM85.4424 12.3486H84.9424C84.9424 13.0388 85.0216 13.6281 85.2259 14.0645L85.6787 13.8525L86.1316 13.6406C86.0207 13.4038 85.9424 12.9905 85.9424 12.3486H85.4424ZM85.6787 13.8525L85.2262 14.0652C85.4086 14.4534 85.6878 14.7584 86.0607 14.9607C86.427 15.1595 86.8558 15.2441 87.3223 15.2441V14.7441V14.2441C86.9724 14.2441 86.719 14.1802 86.5375 14.0817C86.3625 13.9868 86.2281 13.8461 86.1312 13.6399L85.6787 13.8525ZM87.3223 14.7441V15.2441C87.9117 15.2441 88.4451 15.1249 88.8976 14.8579C89.3539 14.5887 89.6947 14.1887 89.9254 13.6846L89.4707 13.4766L89.016 13.2685C88.86 13.6095 88.6493 13.8433 88.3895 13.9966C88.1258 14.1522 87.7784 14.2441 87.3223 14.2441V14.7441ZM89.4707 13.4766L89.9288 13.677C90.1673 13.1319 90.2715 12.4506 90.2715 11.6611H89.7715H89.2715C89.2715 12.3756 89.1752 12.9046 89.0126 13.2762L89.4707 13.4766ZM89.7715 11.6611H90.2715V5.29102H89.7715H89.2715V11.6611H89.7715ZM89.7715 5.29102V5.79102H92.876V5.29102V4.79102H89.7715V5.29102ZM92.876 5.29102H92.376V17H92.876H93.376V5.29102H92.876ZM92.876 17V16.5H89.9004V17V17.5H92.876V17ZM89.9004 17H90.4004V15.3457H89.9004H89.4004V17H89.9004ZM105.648 6.54785L106.013 6.20614L106.012 6.20477L105.648 6.54785ZM105.67 15.7109L105.291 15.3847L105.29 15.3862L105.67 15.7109ZM99.7725 16.6348L99.4684 17.0317L99.471 17.0336L99.7725 16.6348ZM98.7842 15.5068L99.203 15.2337L98.2842 13.8249V15.5068H98.7842ZM98.7842 21.6084V22.1084H99.2842V21.6084H98.7842ZM95.7549 21.6084H95.2549V22.1084H95.7549V21.6084ZM95.7549 5.29102V4.79102H95.2549V5.29102H95.7549ZM98.6875 5.29102H99.1875V4.79102H98.6875V5.29102ZM98.6875 7.02051H98.1875V8.7118L99.1071 7.29238L98.6875 7.02051ZM99.7402 5.81738L99.4356 5.42088L99.4307 5.42475L99.7402 5.81738ZM103.285 8.75L102.854 9.00332L102.856 9.0066L103.285 8.75ZM98.999 9.28711L98.5339 9.10359L98.5324 9.10762L98.999 9.28711ZM99.7617 14.2822L99.4586 14.6799L99.4617 14.6822L99.7617 14.2822ZM103.231 13.7773L102.819 13.4948L102.817 13.4979L103.231 13.7773ZM105.648 6.54785L105.283 6.88956C106.112 7.77438 106.566 9.11441 106.566 10.9951H107.066H107.566C107.566 8.96567 107.076 7.34086 106.013 6.20614L105.648 6.54785ZM107.066 10.9951H106.566C106.566 12.9902 106.115 14.4271 105.291 15.3847L105.67 15.7109L106.049 16.0372C107.086 14.832 107.566 13.125 107.566 10.9951H107.066ZM105.67 15.7109L105.29 15.3862C104.464 16.3529 103.412 16.833 102.093 16.833V17.333V17.833C103.695 17.833 105.028 17.2317 106.05 16.0357L105.67 15.7109ZM102.093 17.333V16.833C101.248 16.833 100.586 16.6231 100.074 16.2359L99.7725 16.6348L99.471 17.0336C100.19 17.5774 101.076 17.833 102.093 17.833V17.333ZM99.7725 16.6348L100.076 16.2378C99.7987 16.0251 99.5055 15.6975 99.203 15.2337L98.7842 15.5068L98.3654 15.78C98.7074 16.3044 99.073 16.7288 99.4684 17.0317L99.7725 16.6348ZM98.7842 15.5068H98.2842V21.6084H98.7842H99.2842V15.5068H98.7842ZM98.7842 21.6084V21.1084H95.7549V21.6084V22.1084H98.7842V21.6084ZM95.7549 21.6084H96.2549V5.29102H95.7549H95.2549V21.6084H95.7549ZM95.7549 5.29102V5.79102H98.6875V5.29102V4.79102H95.7549V5.29102ZM98.6875 5.29102H98.1875V7.02051H98.6875H99.1875V5.29102H98.6875ZM98.6875 7.02051L99.1071 7.29238C99.4146 6.81779 99.7305 6.46176 100.05 6.21002L99.7402 5.81738L99.4307 5.42475C99.0051 5.76024 98.6192 6.2063 98.2679 6.74864L98.6875 7.02051ZM99.7402 5.81738L100.045 6.21385C100.63 5.76456 101.329 5.5332 102.168 5.5332V5.0332V4.5332C101.131 4.5332 100.212 4.82463 99.4356 5.42092L99.7402 5.81738ZM102.168 5.0332V5.5332C103.396 5.5332 104.425 5.97964 105.285 6.89094L105.648 6.54785L106.012 6.20477C104.967 5.09653 103.676 4.5332 102.168 4.5332V5.0332ZM103.908 11.1455H104.408C104.408 10.1635 104.181 9.27428 103.714 8.4934L103.285 8.75L102.856 9.0066C103.22 9.61504 103.408 10.3229 103.408 11.1455H103.908ZM103.285 8.75L103.716 8.49668C103.204 7.62422 102.357 7.20801 101.287 7.20801V7.70801V8.20801C102.065 8.20801 102.55 8.48646 102.854 9.00332L103.285 8.75ZM101.287 7.70801V7.20801C100.651 7.20801 100.079 7.35984 99.5986 7.69127C99.1191 8.0222 98.7699 8.50557 98.5339 9.1036L98.999 9.28711L99.4641 9.47062C99.6435 9.01592 99.8834 8.70973 100.167 8.5143C100.449 8.31936 100.813 8.20801 101.287 8.20801V7.70801ZM98.999 9.28711L98.5324 9.10762C98.2881 9.74263 98.1768 10.5179 98.1768 11.4141H98.6768H99.1768C99.1768 10.5915 99.2802 9.94878 99.4657 9.4666L98.999 9.28711ZM98.6768 11.4141H98.1768C98.1768 12.8507 98.559 13.9941 99.4586 14.6799L99.7617 14.2822L100.065 13.8846C99.5178 13.4675 99.1768 12.6988 99.1768 11.4141H98.6768ZM99.7617 14.2822L99.4617 14.6822C99.9861 15.0755 100.602 15.2656 101.287 15.2656V14.7656V14.2656C100.797 14.2656 100.397 14.1335 100.062 13.8822L99.7617 14.2822ZM101.287 14.7656V15.2656C102.291 15.2656 103.101 14.865 103.646 14.0568L103.231 13.7773L102.817 13.4979C102.473 14.0074 101.987 14.2656 101.287 14.2656V14.7656ZM103.231 13.7773L103.644 14.0598C104.17 13.2921 104.408 12.3055 104.408 11.1455H103.908H103.408C103.408 12.1769 103.195 12.9449 102.819 13.4948L103.231 13.7773ZM119.098 6.54785L119.463 6.20614L119.461 6.20477L119.098 6.54785ZM119.119 15.7109L118.74 15.3847L118.739 15.3862L119.119 15.7109ZM113.222 16.6348L112.918 17.0317L112.92 17.0336L113.222 16.6348ZM112.233 15.5068L112.652 15.2337L111.733 13.8249V15.5068H112.233ZM112.233 21.6084V22.1084H112.733V21.6084H112.233ZM109.204 21.6084H108.704V22.1084H109.204V21.6084ZM109.204 5.29102V4.79102H108.704V5.29102H109.204ZM112.137 5.29102H112.637V4.79102H112.137V5.29102ZM112.137 7.02051H111.637V8.7118L112.556 7.29238L112.137 7.02051ZM113.189 5.81738L112.885 5.42088L112.88 5.42475L113.189 5.81738ZM116.734 8.75L116.303 9.00332L116.305 9.0066L116.734 8.75ZM112.448 9.28711L111.983 9.10359L111.982 9.10762L112.448 9.28711ZM113.211 14.2822L112.908 14.6799L112.911 14.6822L113.211 14.2822ZM116.681 13.7773L116.268 13.4948L116.266 13.4979L116.681 13.7773ZM119.098 6.54785L118.733 6.88956C119.561 7.77438 120.016 9.11441 120.016 10.9951H120.516H121.016C121.016 8.96567 120.525 7.34086 119.463 6.20614L119.098 6.54785ZM120.516 10.9951H120.016C120.016 12.9902 119.565 14.4271 118.74 15.3847L119.119 15.7109L119.498 16.0372C120.536 14.832 121.016 13.125 121.016 10.9951H120.516ZM119.119 15.7109L118.739 15.3862C117.913 16.3529 116.861 16.833 115.542 16.833V17.333V17.833C117.145 17.833 118.478 17.2317 119.499 16.0357L119.119 15.7109ZM115.542 17.333V16.833C114.697 16.833 114.035 16.6231 113.523 16.2359L113.222 16.6348L112.92 17.0336C113.64 17.5774 114.525 17.833 115.542 17.833V17.333ZM113.222 16.6348L113.526 16.2378C113.248 16.0251 112.955 15.6975 112.652 15.2337L112.233 15.5068L111.815 15.78C112.157 16.3044 112.522 16.7288 112.918 17.0317L113.222 16.6348ZM112.233 15.5068H111.733V21.6084H112.233H112.733V15.5068H112.233ZM112.233 21.6084V21.1084H109.204V21.6084V22.1084H112.233V21.6084ZM109.204 21.6084H109.704V5.29102H109.204H108.704V21.6084H109.204ZM109.204 5.29102V5.79102H112.137V5.29102V4.79102H109.204V5.29102ZM112.137 5.29102H111.637V7.02051H112.137H112.637V5.29102H112.137ZM112.137 7.02051L112.556 7.29238C112.864 6.81779 113.18 6.46176 113.499 6.21002L113.189 5.81738L112.88 5.42475C112.454 5.76024 112.068 6.2063 111.717 6.74864L112.137 7.02051ZM113.189 5.81738L113.494 6.21385C114.079 5.76456 114.778 5.5332 115.617 5.5332V5.0332V4.5332C114.58 4.5332 113.661 4.82463 112.885 5.42092L113.189 5.81738ZM115.617 5.0332V5.5332C116.845 5.5332 117.874 5.97964 118.734 6.89094L119.098 6.54785L119.461 6.20477C118.416 5.09653 117.125 4.5332 115.617 4.5332V5.0332ZM117.357 11.1455H117.857C117.857 10.1635 117.63 9.27428 117.164 8.4934L116.734 8.75L116.305 9.0066C116.669 9.61504 116.857 10.3229 116.857 11.1455H117.357ZM116.734 8.75L117.165 8.49668C116.653 7.62422 115.806 7.20801 114.736 7.20801V7.70801V8.20801C115.514 8.20801 116 8.48646 116.303 9.00332L116.734 8.75ZM114.736 7.70801V7.20801C114.1 7.20801 113.528 7.35984 113.048 7.69127C112.568 8.0222 112.219 8.50557 111.983 9.1036L112.448 9.28711L112.913 9.47062C113.093 9.01592 113.333 8.70973 113.616 8.5143C113.898 8.31936 114.262 8.20801 114.736 8.20801V7.70801ZM112.448 9.28711L111.982 9.10762C111.737 9.74263 111.626 10.5179 111.626 11.4141H112.126H112.626C112.626 10.5915 112.729 9.94878 112.915 9.4666L112.448 9.28711ZM112.126 11.4141H111.626C111.626 12.8507 112.008 13.9941 112.908 14.6799L113.211 14.2822L113.514 13.8846C112.967 13.4675 112.626 12.6988 112.626 11.4141H112.126ZM113.211 14.2822L112.911 14.6822C113.435 15.0755 114.052 15.2656 114.736 15.2656V14.7656V14.2656C114.247 14.2656 113.846 14.1335 113.511 13.8822L113.211 14.2822ZM114.736 14.7656V15.2656C115.741 15.2656 116.551 14.865 117.095 14.0568L116.681 13.7773L116.266 13.4979C115.923 14.0074 115.437 14.2656 114.736 14.2656V14.7656ZM116.681 13.7773L117.093 14.0598C117.619 13.2921 117.857 12.3055 117.857 11.1455H117.357H116.857C116.857 12.1769 116.645 12.9449 116.268 13.4948L116.681 13.7773ZM122.804 1.16602V0.666016H122.304V1.16602H122.804ZM125.865 1.16602H126.365V0.666016H125.865V1.16602ZM125.865 17V17.5H126.365V17H125.865ZM122.804 17H122.304V17.5H122.804V17ZM122.804 1.16602V1.66602H125.865V1.16602V0.666016H122.804V1.16602ZM125.865 1.16602H125.365V17H125.865H126.365V1.16602H125.865ZM125.865 17V16.5H122.804V17V17.5H125.865V17ZM122.804 17H123.304V1.16602H122.804H122.304V17H122.804ZM133.621 13.9277L133.142 14.0697L133.635 15.7348L134.103 14.0625L133.621 13.9277ZM136.038 5.29102V4.79102H135.659L135.557 5.15627L136.038 5.29102ZM139.293 5.29102L139.765 5.45572L139.997 4.79102H139.293V5.29102ZM135.275 16.8066L134.803 16.6419L134.803 16.6421L135.275 16.8066ZM133.438 20.9316L133.058 20.6075L133.056 20.61L133.438 20.9316ZM130.076 21.7266L130.098 21.227L130.087 21.2266H130.076V21.7266ZM129.335 21.6943H128.835V22.1628L129.302 22.1933L129.335 21.6943ZM129.335 19.2451L129.363 18.7459L128.835 18.7166V19.2451H129.335ZM129.722 19.2666L129.694 19.7658L129.698 19.766L129.722 19.2666ZM131.269 18.9873L130.987 18.5738L130.984 18.5762L131.269 18.9873ZM131.763 18.2246L131.3 18.0359L131.297 18.0434L131.763 18.2246ZM131.956 17.5156L132.43 17.3575L132.428 17.3498L131.956 17.5156ZM127.659 5.29102V4.79102H126.953L127.187 5.45682L127.659 5.29102ZM131.064 5.29102L131.544 5.14909L131.438 4.79102H131.064V5.29102ZM133.621 13.9277L134.103 14.0625L136.52 5.42576L136.038 5.29102L135.557 5.15627L133.14 13.793L133.621 13.9277ZM136.038 5.29102V5.79102H139.293V5.29102V4.79102H136.038V5.29102ZM139.293 5.29102L138.821 5.12631L134.803 16.6419L135.275 16.8066L135.747 16.9713L139.765 5.45572L139.293 5.29102ZM135.275 16.8066L134.803 16.6421C134.419 17.7454 134.078 18.6298 133.779 19.2995C133.475 19.9819 133.233 20.4011 133.058 20.6075L133.438 20.9316L133.819 21.2558C134.095 20.9322 134.384 20.399 134.693 19.7063C135.007 19.0011 135.358 18.0879 135.748 16.9711L135.275 16.8066ZM133.438 20.9316L133.056 20.61C132.758 20.9647 132.062 21.2373 130.731 21.2373V21.7373V22.2373C132.108 22.2373 133.217 21.9728 133.821 21.2532L133.438 20.9316ZM130.731 21.7373V21.2373C130.463 21.2373 130.252 21.2337 130.098 21.227L130.076 21.7266L130.054 22.2261C130.23 22.2337 130.456 22.2373 130.731 22.2373V21.7373ZM130.076 21.7266V21.2266C129.928 21.2266 129.695 21.2167 129.368 21.1954L129.335 21.6943L129.302 22.1933C129.634 22.2149 129.895 22.2266 130.076 22.2266V21.7266ZM129.335 21.6943H129.835V19.2451H129.335H128.835V21.6943H129.335ZM129.335 19.2451L129.307 19.7443L129.694 19.7658L129.722 19.2666L129.749 18.7674L129.363 18.7459L129.335 19.2451ZM129.722 19.2666L129.698 19.766C130.026 19.7816 130.342 19.7701 130.646 19.7301L130.581 19.2344L130.516 18.7386C130.276 18.7702 130.019 18.7802 129.745 18.7672L129.722 19.2666ZM130.581 19.2344L130.646 19.7301C130.981 19.6861 131.289 19.5812 131.553 19.3984L131.269 18.9873L130.984 18.5762C130.876 18.6512 130.726 18.711 130.516 18.7386L130.581 19.2344ZM131.269 18.9873L131.55 19.4008C131.86 19.1899 132.07 18.8137 132.229 18.4058L131.763 18.2246L131.297 18.0434C131.155 18.4089 131.035 18.5412 130.987 18.5738L131.269 18.9873ZM131.763 18.2246L132.226 18.4133C132.308 18.2123 132.372 18.0353 132.412 17.8889C132.431 17.816 132.449 17.739 132.457 17.6635C132.464 17.5994 132.472 17.4821 132.43 17.3575L131.956 17.5156L131.482 17.6737C131.454 17.5921 131.465 17.5366 131.463 17.5531C131.463 17.5581 131.459 17.5804 131.447 17.6258C131.422 17.7157 131.375 17.8502 131.3 18.036L131.763 18.2246ZM131.956 17.5156L132.428 17.3498L128.131 5.12521L127.659 5.29102L127.187 5.45682L131.484 17.6814L131.956 17.5156ZM127.659 5.29102V5.79102H131.064V5.29102V4.79102H127.659V5.29102ZM131.064 5.29102L130.585 5.43294L133.142 14.0697L133.621 13.9277L134.101 13.7858L131.544 5.14909L131.064 5.29102Z" fill="black" mask="url(#path-1-inside-1_91_25)"/>
</svg>
